Castoro-Regular.ufo
<glyph name="M" format="2">
  <advance width="969"/>
  <unicode hex="004D"/>
  <outline>
    <contour>
      <point x="482" y="152" type="line"/>
      <point x="275" y="700" type="line"/>
      <point x="247" y="699"/>
      <point x="209" y="699"/>
      <point x="189" y="699" type="curve" smooth="yes"/>
      <point x="130" y="699"/>
      <point x="84" y="701"/>
      <point x="39" y="701" type="curve"/>
      <point x="38" y="691"/>
      <point x="38" y="681"/>
      <point x="39" y="670" type="curve"/>
      <point x="136" y="661"/>
      <point x="142" y="660"/>
      <point x="139" y="590" type="curve" smooth="yes"/>
      <point x="120" y="123" type="line" smooth="yes"/>
      <point x="117" y="44"/>
      <point x="115" y="41"/>
      <point x="21" y="30" type="curve"/>
      <point x="20" y="20"/>
      <point x="20" y="9"/>
      <point x="21" y="-1" type="curve"/>
      <point x="37" y="-1"/>
      <point x="129" y="1"/>
      <point x="145" y="1" type="curve" smooth="yes"/>
      <point x="166" y="1"/>
      <point x="244" y="-1"/>
      <point x="264" y="-1" type="curve"/>
      <point x="267" y="9"/>
      <point x="267" y="19"/>
      <point x="264" y="30" type="curve"/>
      <point x="169" y="42"/>
      <point x="168" y="44"/>
      <point x="170" y="110" type="curve" smooth="yes"/>
      <point x="187" y="657" type="line"/>
      <point x="178" y="646" type="line"/>
      <point x="423" y="-4" type="line"/>
      <point x="437" y="-4"/>
      <point x="462" y="-3"/>
      <point x="471" y="1" type="curve"/>
      <point x="730" y="663" type="line"/>
      <point x="723" y="658" type="line"/>
      <point x="732" y="110" type="line" smooth="yes"/>
      <point x="733" y="39"/>
      <point x="728" y="39"/>
      <point x="637" y="30" type="curve"/>
      <point x="636" y="19"/>
      <point x="636" y="9"/>
      <point x="637" y="-1" type="curve"/>
      <point x="659" y="-1"/>
      <point x="766" y="1"/>
      <point x="787" y="1" type="curve" smooth="yes"/>
      <point x="809" y="1"/>
      <point x="919" y="-1"/>
      <point x="940" y="-1" type="curve"/>
      <point x="942" y="9"/>
      <point x="942" y="20"/>
      <point x="940" y="30" type="curve"/>
      <point x="842" y="38"/>
      <point x="842" y="39"/>
      <point x="841" y="123" type="curve" smooth="yes"/>
      <point x="833" y="590" type="line" smooth="yes"/>
      <point x="832" y="661"/>
      <point x="837" y="661"/>
      <point x="932" y="670" type="curve"/>
      <point x="934" y="681"/>
      <point x="934" y="691"/>
      <point x="932" y="701" type="curve"/>
      <point x="911" y="701"/>
      <point x="801" y="699"/>
      <point x="779" y="699" type="curve" smooth="yes"/>
      <point x="758" y="699"/>
      <point x="724" y="699"/>
      <point x="696" y="700" type="curve"/>
    </contour>
  </outline>
</glyph>
<glyph name="Q" format="2">
  <advance width="802"/>
  <unicode hex="0051"/>
  <outline>
    <contour>
      <point x="323" y="-9" type="curve" smooth="yes"/>
      <point x="376" y="-19"/>
      <point x="393" y="-10"/>
      <point x="424" y="-47" type="curve" smooth="yes"/>
      <point x="438" y="-63"/>
      <point x="450" y="-81"/>
      <point x="463" y="-100" type="curve" smooth="yes"/>
      <point x="512" y="-169"/>
      <point x="563" y="-242"/>
      <point x="672" y="-242" type="curve" smooth="yes"/>
      <point x="741" y="-242"/>
      <point x="806" y="-211"/>
      <point x="856" y="-169" type="curve"/>
      <point x="852" y="-160"/>
      <point x="846" y="-149"/>
      <point x="841" y="-142" type="curve"/>
      <point x="812" y="-154"/>
      <point x="785" y="-157"/>
      <point x="756" y="-157" type="curve" smooth="yes"/>
      <point x="666" y="-157"/>
      <point x="600" y="-128"/>
      <point x="470" y="-9" type="curve"/>
      <point x="470" y="4" type="line"/>
      <point x="454" y="-8" type="line"/>
      <point x="641" y="14"/>
      <point x="752" y="163"/>
      <point x="752" y="354" type="curve" smooth="yes"/>
      <point x="752" y="562"/>
      <point x="620" y="711"/>
      <point x="407" y="711" type="curve" smooth="yes"/>
      <point x="190" y="711"/>
      <point x="50" y="557"/>
      <point x="50" y="340" type="curve" smooth="yes"/>
      <point x="50" y="159"/>
      <point x="148" y="25"/>
    </contour>
    <contour>
      <point x="628" y="344" type="curve" smooth="yes"/>
      <point x="628" y="184"/>
      <point x="570" y="25"/>
      <point x="406" y="25" type="curve" smooth="yes"/>
      <point x="237" y="25"/>
      <point x="175" y="194"/>
      <point x="175" y="350" type="curve" smooth="yes"/>
      <point x="175" y="505"/>
      <point x="236" y="670"/>
      <point x="403" y="670" type="curve" smooth="yes"/>
      <point x="568" y="670"/>
      <point x="628" y="506"/>
    </contour>
  </outline>
  <guideline angle="346.977" x="0" y="67"/>
  <guideline angle="134.994" x="342" y="0"/>
</glyph>
<glyph name="S" format="2">
  <advance width="547"/>
  <unicode hex="0053"/>
  <outline>
    <contour>
      <point x="256" y="-14" type="curve"/>
      <point x="389" y="-14"/>
      <point x="502" y="63"/>
      <point x="502" y="199" type="curve" smooth="yes"/>
      <point x="502" y="322"/>
      <point x="400" y="370"/>
      <point x="312" y="407" type="curve" smooth="yes"/>
      <point x="193" y="457"/>
      <point x="155" y="493"/>
      <point x="155" y="555" type="curve" smooth="yes"/>
      <point x="155" y="632"/>
      <point x="214" y="672"/>
      <point x="288" y="672" type="curve" smooth="yes"/>
      <point x="330" y="672"/>
      <point x="362" y="659"/>
      <point x="385" y="633" type="curve" smooth="yes"/>
      <point x="408" y="607"/>
      <point x="426" y="568"/>
      <point x="442" y="508" type="curve"/>
      <point x="451" y="507"/>
      <point x="463" y="508"/>
      <point x="475" y="510" type="curve"/>
      <point x="470" y="578"/>
      <point x="467" y="640"/>
      <point x="465" y="699" type="curve"/>
      <point x="458" y="697"/>
      <point x="445" y="697"/>
      <point x="441" y="697" type="curve" smooth="yes"/>
      <point x="434" y="697"/>
      <point x="415" y="697"/>
      <point x="376" y="703" type="curve" smooth="yes"/>
      <point x="345" y="708"/>
      <point x="317" y="711"/>
      <point x="290" y="711" type="curve" smooth="yes"/>
      <point x="162" y="711"/>
      <point x="57" y="637"/>
      <point x="57" y="511" type="curve" smooth="yes"/>
      <point x="57" y="392"/>
      <point x="152" y="351"/>
      <point x="248" y="310" type="curve" smooth="yes"/>
      <point x="330" y="275"/>
      <point x="407" y="241"/>
      <point x="407" y="154" type="curve" smooth="yes"/>
      <point x="407" y="76"/>
      <point x="347" y="25"/>
      <point x="260" y="25" type="curve" smooth="yes"/>
      <point x="162" y="25"/>
      <point x="104" y="92"/>
      <point x="79" y="209" type="curve"/>
      <point x="69" y="209"/>
      <point x="57" y="209"/>
      <point x="47" y="208" type="curve"/>
      <point x="52" y="130"/>
      <point x="55" y="64"/>
      <point x="56" y="7" type="curve"/>
      <point x="64" y="7"/>
      <point x="105" y="4"/>
      <point x="151" y="-4" type="curve" smooth="yes"/>
      <point x="206" y="-14"/>
      <point x="254" y="-14"/>
    </contour>
  </outline>
</glyph>
<glyph name="Y" format="2">
  <advance width="620"/>
  <unicode hex="0059"/>
  <outline>
    <contour>
      <point x="512" y="560" type="line" smooth="yes"/>
      <point x="566" y="656"/>
      <point x="574" y="661"/>
      <point x="651" y="669" type="curve"/>
      <point x="652" y="679"/>
      <point x="652" y="691"/>
      <point x="651" y="701" type="curve"/>
      <point x="609" y="701"/>
      <point x="575" y="699"/>
      <point x="533" y="699" type="curve" smooth="yes"/>
      <point x="501" y="699"/>
      <point x="434" y="701"/>
      <point x="402" y="701" type="curve"/>
      <point x="401" y="691"/>
      <point x="401" y="680"/>
      <point x="402" y="669" type="curve"/>
      <point x="468" y="661"/>
      <point x="493" y="657"/>
      <point x="493" y="637" type="curve" smooth="yes"/>
      <point x="493" y="627"/>
      <point x="487" y="614"/>
      <point x="475" y="592" type="curve" smooth="yes"/>
      <point x="337" y="337" type="line"/>
      <point x="349" y="336" type="line"/>
      <point x="212" y="593" type="line" smooth="yes"/>
      <point x="200" y="615"/>
      <point x="192" y="630"/>
      <point x="192" y="640" type="curve" smooth="yes"/>
      <point x="192" y="659"/>
      <point x="213" y="664"/>
      <point x="271" y="669" type="curve"/>
      <point x="272" y="680"/>
      <point x="272" y="691"/>
      <point x="271" y="701" type="curve"/>
      <point x="223" y="701"/>
      <point x="167" y="699"/>
      <point x="125" y="699" type="curve" smooth="yes"/>
      <point x="76" y="699"/>
      <point x="24" y="701"/>
      <point x="-24" y="701" type="curve"/>
      <point x="-25" y="691"/>
      <point x="-25" y="679"/>
      <point x="-24" y="669" type="curve"/>
      <point x="52" y="661"/>
      <point x="54" y="656"/>
      <point x="103" y="566" type="curve" smooth="yes"/>
      <point x="266" y="268" type="line"/>
      <point x="348" y="268" type="line"/>
    </contour>
    <contour>
      <point x="155" y="-1" type="curve"/>
      <point x="197" y="-1"/>
      <point x="271" y="1"/>
      <point x="309" y="1" type="curve" smooth="yes"/>
      <point x="347" y="1"/>
      <point x="422" y="-1"/>
      <point x="464" y="-1" type="curve"/>
      <point x="466" y="9"/>
      <point x="466" y="21"/>
      <point x="464" y="31" type="curve"/>
      <point x="366" y="39"/>
      <point x="365" y="40"/>
      <point x="365" y="124" type="curve" smooth="yes"/>
      <point x="365" y="310" type="line"/>
      <point x="255" y="310" type="line"/>
      <point x="255" y="111" type="line" smooth="yes"/>
      <point x="255" y="40"/>
      <point x="251" y="40"/>
      <point x="155" y="31" type="curve"/>
      <point x="154" y="20"/>
      <point x="154" y="9"/>
    </contour>
  </outline>
</glyph>
<glyph name="twosuperior" format="2">
  <advance width="386"/>
  <unicode hex="00B2"/>
  <outline>
    <contour>
      <point x="317" y="333" type="curve"/>
      <point x="325" y="379"/>
      <point x="339" y="433"/>
      <point x="351" y="482" type="curve"/>
      <point x="343" y="486"/>
      <point x="331" y="487"/>
      <point x="324" y="487" type="curve"/>
      <point x="294" y="413"/>
      <point x="284" y="406"/>
      <point x="247" y="406" type="curve" smooth="yes"/>
      <point x="238" y="406"/>
      <point x="181" y="405"/>
      <point x="118" y="405" type="curve"/>
      <point x="238" y="517"/>
      <point x="318" y="600"/>
      <point x="318" y="679" type="curve" smooth="yes"/>
      <point x="318" y="749"/>
      <point x="256" y="788"/>
      <point x="183" y="788" type="curve" smooth="yes"/>
      <point x="122" y="788"/>
      <point x="73" y="761"/>
      <point x="34" y="713" type="curve"/>
      <point x="38" y="705"/>
      <point x="43" y="697"/>
      <point x="50" y="691" type="curve"/>
      <point x="76" y="715"/>
      <point x="108" y="729"/>
      <point x="141" y="729" type="curve" smooth="yes"/>
      <point x="188" y="729"/>
      <point x="227" y="702"/>
      <point x="227" y="644" type="curve" smooth="yes"/>
      <point x="227" y="576"/>
      <point x="173" y="487"/>
      <point x="16" y="358" type="curve"/>
      <point x="16" y="348"/>
      <point x="17" y="343"/>
      <point x="20" y="334" type="curve"/>
      <point x="40" y="335"/>
      <point x="76" y="335"/>
      <point x="130" y="335" type="curve" smooth="yes"/>
      <point x="186" y="335"/>
      <point x="259" y="335"/>
    </contour>
  </outline>
</glyph>
<glyph name="Oslash" format="2">
  <advance width="802"/>
  <unicode hex="00D8"/>
  <outline>
    <contour>
      <point x="752" y="678" type="line"/>
      <point x="742" y="690"/>
      <point x="729" y="702"/>
      <point x="718" y="710" type="curve"/>
      <point x="49" y="17" type="line"/>
      <point x="58" y="7"/>
      <point x="69" y="-3"/>
      <point x="83" y="-15" type="curve"/>
    </contour>
    <contour>
      <point x="395" y="-15" type="curve" smooth="yes"/>
      <point x="612" y="-15"/>
      <point x="752" y="138"/>
      <point x="752" y="354" type="curve" smooth="yes"/>
      <point x="752" y="562"/>
      <point x="620" y="711"/>
      <point x="407" y="711" type="curve" smooth="yes"/>
      <point x="190" y="711"/>
      <point x="50" y="556"/>
      <point x="50" y="342" type="curve" smooth="yes"/>
      <point x="50" y="135"/>
      <point x="179" y="-15"/>
    </contour>
    <contour>
      <point x="406" y="25" type="curve" smooth="yes"/>
      <point x="237" y="25"/>
      <point x="175" y="194"/>
      <point x="175" y="349" type="curve" smooth="yes"/>
      <point x="175" y="505"/>
      <point x="236" y="670"/>
      <point x="403" y="670" type="curve" smooth="yes"/>
      <point x="568" y="670"/>
      <point x="628" y="506"/>
      <point x="628" y="344" type="curve" smooth="yes"/>
      <point x="628" y="184"/>
      <point x="570" y="25"/>
    </contour>
  </outline>
</glyph>
<glyph name="Thorn" format="2">
  <advance width="602"/>
  <unicode hex="00DE"/>
  <outline>
    <contour>
      <point x="30" y="-1" type="curve"/>
      <point x="73" y="-1"/>
      <point x="146" y="1"/>
      <point x="185" y="1" type="curve" smooth="yes"/>
      <point x="223" y="1"/>
      <point x="298" y="-1"/>
      <point x="339" y="-1" type="curve"/>
      <point x="341" y="9"/>
      <point x="341" y="21"/>
      <point x="339" y="31" type="curve"/>
      <point x="241" y="39"/>
      <point x="240" y="40"/>
      <point x="240" y="124" type="curve" smooth="yes"/>
      <point x="240" y="589" type="line" smooth="yes"/>
      <point x="240" y="660"/>
      <point x="244" y="660"/>
      <point x="339" y="669" type="curve"/>
      <point x="341" y="680"/>
      <point x="341" y="691"/>
      <point x="339" y="701" type="curve"/>
      <point x="300" y="701"/>
      <point x="224" y="699"/>
      <point x="187" y="699" type="curve" smooth="yes"/>
      <point x="149" y="699"/>
      <point x="71" y="701"/>
      <point x="30" y="701" type="curve"/>
      <point x="29" y="690"/>
      <point x="29" y="679"/>
      <point x="30" y="669" type="curve"/>
      <point x="125" y="661"/>
      <point x="130" y="659"/>
      <point x="130" y="576" type="curve" smooth="yes"/>
      <point x="130" y="111" type="line" smooth="yes"/>
      <point x="130" y="40"/>
      <point x="126" y="40"/>
      <point x="30" y="31" type="curve"/>
      <point x="29" y="20"/>
      <point x="29" y="9"/>
    </contour>
    <contour>
      <point x="228" y="181" type="line"/>
      <point x="271" y="170"/>
      <point x="302" y="168"/>
      <point x="332" y="168" type="curve" smooth="yes"/>
      <point x="465" y="168"/>
      <point x="567" y="240"/>
      <point x="567" y="375" type="curve" smooth="yes"/>
      <point x="567" y="496"/>
      <point x="485" y="560"/>
      <point x="314" y="560" type="curve" smooth="yes"/>
      <point x="291" y="560"/>
      <point x="262" y="558"/>
      <point x="227" y="553" type="curve"/>
      <point x="227" y="512" type="line"/>
      <point x="253" y="516"/>
      <point x="273" y="518"/>
      <point x="293" y="518" type="curve" smooth="yes"/>
      <point x="394" y="518"/>
      <point x="445" y="463"/>
      <point x="445" y="369" type="curve" smooth="yes"/>
      <point x="445" y="273"/>
      <point x="391" y="210"/>
      <point x="300" y="210" type="curve" smooth="yes"/>
      <point x="284" y="210"/>
      <point x="259" y="212"/>
      <point x="228" y="221" type="curve"/>
    </contour>
  </outline>
</glyph>
<glyph name="oslash" format="2">
  <advance width="571"/>
  <unicode hex="00F8"/>
  <outline>
    <contour>
      <point x="535" y="470" type="line"/>
      <point x="527" y="481"/>
      <point x="518" y="490"/>
      <point x="506" y="498" type="curve"/>
      <point x="34" y="10" type="line"/>
      <point x="42" y="0"/>
      <point x="53" y="-8"/>
      <point x="63" y="-17" type="curve"/>
    </contour>
    <contour>
      <point x="281" y="-12" type="curve" smooth="yes"/>
      <point x="431" y="-12"/>
      <point x="531" y="98"/>
      <point x="531" y="245" type="curve" smooth="yes"/>
      <point x="531" y="387"/>
      <point x="435" y="492"/>
      <point x="290" y="492" type="curve" smooth="yes"/>
      <point x="141" y="492"/>
      <point x="39" y="389"/>
      <point x="39" y="234" type="curve" smooth="yes"/>
      <point x="39" y="89"/>
      <point x="134" y="-12"/>
    </contour>
    <contour>
      <point x="286" y="25" type="curve" smooth="yes"/>
      <point x="197" y="25"/>
      <point x="152" y="110"/>
      <point x="152" y="246" type="curve" smooth="yes"/>
      <point x="152" y="376"/>
      <point x="199" y="454"/>
      <point x="285" y="454" type="curve" smooth="yes"/>
      <point x="372" y="454"/>
      <point x="418" y="368"/>
      <point x="418" y="233" type="curve" smooth="yes"/>
      <point x="418" y="106"/>
      <point x="371" y="25"/>
    </contour>
  </outline>
</glyph>
<glyph name="aogonek" format="2">
  <advance width="493"/>
  <unicode hex="0105"/>
  <outline>
    <contour>
      <point x="381" y="-11" type="line"/>
      <point x="309" y="-53"/>
      <point x="269" y="-103"/>
      <point x="269" y="-156" type="curve" smooth="yes"/>
      <point x="269" y="-211"/>
      <point x="308" y="-250"/>
      <point x="381" y="-250" type="curve" smooth="yes"/>
      <point x="416" y="-250"/>
      <point x="454" y="-238"/>
      <point x="487" y="-211" type="curve"/>
      <point x="486" y="-204"/>
      <point x="483" y="-196"/>
      <point x="479" y="-188" type="curve"/>
      <point x="467" y="-192"/>
      <point x="452" y="-196"/>
      <point x="434" y="-196" type="curve" smooth="yes"/>
      <point x="392" y="-196"/>
      <point x="365" y="-173"/>
      <point x="365" y="-132" type="curve" smooth="yes"/>
      <point x="365" y="-84"/>
      <point x="393" y="-38"/>
      <point x="452" y="9" type="curve"/>
      <point x="465" y="17"/>
      <point x="478" y="27"/>
      <point x="491" y="41" type="curve"/>
      <point x="490" y="48"/>
      <point x="488" y="56"/>
      <point x="483" y="63" type="curve"/>
      <point x="458" y="55"/>
      <point x="441" y="51"/>
      <point x="428" y="51" type="curve" smooth="yes"/>
      <point x="408" y="51"/>
      <point x="400" y="62"/>
      <point x="400" y="83" type="curve" smooth="yes"/>
      <point x="400" y="148"/>
      <point x="405" y="310"/>
      <point x="405" y="373" type="curve" smooth="yes"/>
      <point x="405" y="450"/>
      <point x="340" y="492"/>
      <point x="266" y="492" type="curve" smooth="yes"/>
      <point x="185" y="492"/>
      <point x="45" y="441"/>
      <point x="45" y="376" type="curve" smooth="yes"/>
      <point x="45" y="352"/>
      <point x="63" y="333"/>
      <point x="92" y="333" type="curve" smooth="yes"/>
      <point x="141" y="333"/>
      <point x="172" y="390"/>
      <point x="171" y="437" type="curve"/>
      <point x="182" y="442"/>
      <point x="197" y="445"/>
      <point x="216" y="445" type="curve" smooth="yes"/>
      <point x="264" y="445"/>
      <point x="303" y="418"/>
      <point x="303" y="371" type="curve" smooth="yes"/>
      <point x="303" y="323"/>
      <point x="302" y="280"/>
      <point x="302" y="242" type="curve" smooth="yes"/>
      <point x="300" y="76" type="line"/>
      <point x="298" y="64" type="line"/>
      <point x="308" y="16"/>
      <point x="337" y="-7"/>
      <point x="380" y="-9" type="curve"/>
    </contour>
    <contour>
      <point x="155" y="-12" type="curve" smooth="yes"/>
      <point x="207" y="-12"/>
      <point x="256" y="12"/>
      <point x="306" y="62" type="curve"/>
      <point x="309" y="87" type="line"/>
      <point x="263" y="66"/>
      <point x="231" y="53"/>
      <point x="206" y="53" type="curve" smooth="yes"/>
      <point x="168" y="53"/>
      <point x="141" y="78"/>
      <point x="141" y="125" type="curve" smooth="yes"/>
      <point x="141" y="183"/>
      <point x="183" y="220"/>
      <point x="318" y="235" type="curve"/>
      <point x="316" y="271" type="line"/>
      <point x="126" y="249"/>
      <point x="33" y="195"/>
      <point x="33" y="103" type="curve" smooth="yes"/>
      <point x="33" y="31"/>
      <point x="87" y="-12"/>
    </contour>
  </outline>
</glyph>
<glyph name="kgreenlandic" format="2">
  <advance width="556"/>
  <unicode hex="0138"/>
  <outline>
    <contour>
      <point x="383" y="-1" type="curve"/>
      <point x="402" y="1"/>
      <point x="426" y="1"/>
      <point x="437" y="1" type="curve" smooth="yes"/>
      <point x="509" y="1"/>
      <point x="537" y="-1"/>
      <point x="555" y="-1" type="curve"/>
      <point x="556" y="10"/>
      <point x="556" y="21"/>
      <point x="555" y="30" type="curve"/>
      <point x="495" y="34"/>
      <point x="484" y="50"/>
      <point x="440" y="108" type="curve" smooth="yes"/>
      <point x="306" y="285" type="line"/>
      <point x="383" y="362" type="line" smooth="yes"/>
      <point x="427" y="406"/>
      <point x="470" y="443"/>
      <point x="540" y="445" type="curve"/>
      <point x="541" y="450"/>
      <point x="542" y="455"/>
      <point x="542" y="460" type="curve" smooth="yes"/>
      <point x="542" y="465"/>
      <point x="541" y="471"/>
      <point x="540" y="476" type="curve"/>
      <point x="517" y="476"/>
      <point x="450" y="475"/>
      <point x="426" y="475" type="curve" smooth="yes"/>
      <point x="394" y="475"/>
      <point x="348" y="477"/>
      <point x="321" y="477" type="curve"/>
      <point x="320" y="472"/>
      <point x="320" y="466"/>
      <point x="320" y="461" type="curve" smooth="yes"/>
      <point x="320" y="455"/>
      <point x="320" y="450"/>
      <point x="321" y="445" type="curve"/>
      <point x="352" y="444"/>
      <point x="371" y="436"/>
      <point x="371" y="425" type="curve" smooth="yes"/>
      <point x="371" y="410"/>
      <point x="349" y="390"/>
      <point x="314" y="352" type="curve" smooth="yes"/>
      <point x="258" y="292"/>
      <point x="241" y="277"/>
      <point x="237" y="274" type="curve" smooth="yes"/>
      <point x="230" y="268"/>
      <point x="220" y="262"/>
      <point x="203" y="262" type="curve" smooth="yes"/>
      <point x="195" y="262"/>
      <point x="185" y="263"/>
      <point x="173" y="267" type="curve"/>
      <point x="173" y="230" type="line"/>
      <point x="183" y="232"/>
      <point x="191" y="233"/>
      <point x="204" y="233" type="curve" smooth="yes"/>
      <point x="223" y="233"/>
      <point x="233" y="221"/>
      <point x="248" y="201" type="curve" smooth="yes"/>
      <point x="285" y="152"/>
      <point x="344" y="70"/>
      <point x="352" y="58" type="curve" smooth="yes"/>
      <point x="361" y="46"/>
      <point x="383" y="13"/>
    </contour>
    <contour>
      <point x="267" y="-1" type="curve"/>
      <point x="269" y="9"/>
      <point x="269" y="20"/>
      <point x="267" y="30" type="curve"/>
      <point x="211" y="34"/>
      <point x="204" y="36"/>
      <point x="204" y="114" type="curve" smooth="yes"/>
      <point x="204" y="382" type="line" smooth="yes"/>
      <point x="204" y="414"/>
      <point x="205" y="449"/>
      <point x="206" y="491" type="curve"/>
      <point x="189" y="497" type="line"/>
      <point x="140" y="479"/>
      <point x="86" y="462"/>
      <point x="30" y="451" type="curve"/>
      <point x="28" y="443"/>
      <point x="28" y="434"/>
      <point x="30" y="425" type="curve"/>
      <point x="103" y="415"/>
      <point x="103" y="406"/>
      <point x="103" y="328" type="curve" smooth="yes"/>
      <point x="103" y="104" type="line" smooth="yes"/>
      <point x="103" y="38"/>
      <point x="95" y="34"/>
      <point x="27" y="30" type="curve"/>
      <point x="25" y="20"/>
      <point x="25" y="9"/>
      <point x="27" y="-1" type="curve"/>
      <point x="67" y="-1"/>
      <point x="113" y="1"/>
      <point x="156" y="1" type="curve" smooth="yes"/>
      <point x="202" y="1"/>
      <point x="229" y="-1"/>
    </contour>
  </outline>
</glyph>
<glyph name="lslash" format="2">
  <advance width="312"/>
  <unicode hex="0142"/>
  <outline>
    <contour>
      <point x="299" y="436" type="line"/>
      <point x="293" y="451"/>
      <point x="287" y="463"/>
      <point x="278" y="475" type="curve"/>
      <point x="13" y="335" type="line"/>
      <point x="18" y="321"/>
      <point x="24" y="308"/>
      <point x="33" y="296" type="curve"/>
    </contour>
    <contour>
      <point x="280" y="-1" type="curve"/>
      <point x="281" y="9"/>
      <point x="281" y="20"/>
      <point x="280" y="30" type="curve"/>
      <point x="213" y="34"/>
      <point x="207" y="36"/>
      <point x="207" y="114" type="curve" smooth="yes"/>
      <point x="207" y="638" type="line" smooth="yes"/>
      <point x="207" y="682"/>
      <point x="207" y="719"/>
      <point x="209" y="749" type="curve"/>
      <point x="192" y="755" type="line"/>
      <point x="133" y="730"/>
      <point x="77" y="717"/>
      <point x="24" y="710" type="curve"/>
      <point x="22" y="700"/>
      <point x="22" y="692"/>
      <point x="24" y="683" type="curve"/>
      <point x="94" y="677"/>
      <point x="105" y="667"/>
      <point x="105" y="605" type="curve" smooth="yes"/>
      <point x="105" y="104" type="line" smooth="yes"/>
      <point x="105" y="38"/>
      <point x="97" y="34"/>
      <point x="29" y="30" type="curve"/>
      <point x="27" y="20"/>
      <point x="27" y="9"/>
      <point x="29" y="-1" type="curve"/>
      <point x="69" y="-1"/>
      <point x="104" y="1"/>
      <point x="154" y="1" type="curve" smooth="yes"/>
      <point x="203" y="1"/>
      <point x="241" y="-1"/>
    </contour>
  </outline>
  <guideline angle="90" x="17" y="0"/>
  <guideline angle="90" x="295" y="0"/>
</glyph>
<glyph name="eng" format="2">
  <advance width="591"/>
  <unicode hex="014B"/>
  <outline>
    <contour>
      <point x="408" y="-29" type="line" smooth="yes"/>
      <point x="408" y="-74"/>
      <point x="408" y="-184"/>
      <point x="364" y="-205" type="curve"/>
      <point x="348" y="-173"/>
      <point x="320" y="-158"/>
      <point x="291" y="-158" type="curve" smooth="yes"/>
      <point x="255" y="-158"/>
      <point x="236" y="-180"/>
      <point x="236" y="-204" type="curve" smooth="yes"/>
      <point x="236" y="-228"/>
      <point x="256" y="-255"/>
      <point x="309" y="-255" type="curve" smooth="yes"/>
      <point x="358" y="-255"/>
      <point x="407" y="-231"/>
      <point x="449" y="-186" type="curve" smooth="yes"/>
      <point x="494" y="-138"/>
      <point x="510" y="-86"/>
      <point x="510" y="51" type="curve" smooth="yes"/>
      <point x="510" y="341" type="line" smooth="yes"/>
      <point x="510" y="438"/>
      <point x="463" y="492"/>
      <point x="376" y="492" type="curve" smooth="yes"/>
      <point x="314" y="492"/>
      <point x="245" y="465"/>
      <point x="175" y="386" type="curve"/>
      <point x="179" y="349" type="line"/>
      <point x="233" y="408"/>
      <point x="272" y="425"/>
      <point x="318" y="425" type="curve" smooth="yes"/>
      <point x="389" y="425"/>
      <point x="408" y="386"/>
      <point x="408" y="306" type="curve" smooth="yes"/>
    </contour>
    <contour>
      <point x="27" y="-1" type="curve"/>
      <point x="67" y="-1"/>
      <point x="108" y="1"/>
      <point x="151" y="1" type="curve" smooth="yes"/>
      <point x="197" y="1"/>
      <point x="239" y="-1"/>
      <point x="277" y="-1" type="curve"/>
      <point x="279" y="9"/>
      <point x="279" y="20"/>
      <point x="277" y="30" type="curve"/>
      <point x="210" y="34"/>
      <point x="204" y="36"/>
      <point x="204" y="114" type="curve" smooth="yes"/>
      <point x="203" y="491" type="line"/>
      <point x="186" y="497" type="line"/>
      <point x="139" y="478"/>
      <point x="84" y="462"/>
      <point x="28" y="451" type="curve"/>
      <point x="26" y="443"/>
      <point x="26" y="434"/>
      <point x="28" y="425" type="curve"/>
      <point x="102" y="415"/>
      <point x="103" y="406"/>
      <point x="103" y="328" type="curve" smooth="yes"/>
      <point x="103" y="104" type="line" smooth="yes"/>
      <point x="103" y="38"/>
      <point x="95" y="34"/>
      <point x="27" y="30" type="curve"/>
      <point x="25" y="20"/>
      <point x="25" y="9"/>
    </contour>
  </outline>
</glyph>
<glyph name="gravecomb" format="2">
  <unicode hex="0300"/>
  <outline>
    <contour>
      <point x="-409" y="742" type="line"/>
      <point x="-281" y="548" type="line"/>
      <point x="-274" y="547"/>
      <point x="-260" y="548"/>
      <point x="-252" y="551" type="curve"/>
      <point x="-301" y="747" type="line"/>
      <point x="-304" y="750"/>
      <point x="-315" y="752"/>
      <point x="-335" y="752" type="curve" smooth="yes"/>
      <point x="-362" y="752"/>
      <point x="-386" y="750"/>
      <point x="-409" y="746" type="curve"/>
    </contour>
  </outline>
</glyph>
<glyph name="macroncomb" format="2">
  <unicode hex="0304"/>
  <outline>
    <contour>
      <point x="-427" y="661" type="line"/>
      <point x="-429" y="645"/>
      <point x="-429" y="627"/>
      <point x="-427" y="611" type="curve"/>
      <point x="-145" y="611" type="line"/>
      <point x="-143" y="627"/>
      <point x="-143" y="645"/>
      <point x="-145" y="661" type="curve"/>
    </contour>
  </outline>
  <guideline angle="90" x="-202" y="0"/>
</glyph>
<glyph name="commaaccentturnedabovecomb" format="2">
  <unicode hex="0312"/>
  <outline>
    <contour>
      <point x="-228" y="730" type="curve"/>
      <point x="-289" y="715"/>
      <point x="-316" y="690"/>
      <point x="-316" y="655" type="curve" smooth="yes"/>
      <point x="-316" y="642"/>
      <point x="-314" y="636"/>
      <point x="-307" y="618" type="curve"/>
      <point x="-322" y="622" type="line"/>
      <point x="-307" y="638"/>
      <point x="-288" y="646"/>
      <point x="-271" y="646" type="curve" smooth="yes"/>
      <point x="-244" y="646"/>
      <point x="-222" y="627"/>
      <point x="-222" y="595" type="curve" smooth="yes"/>
      <point x="-222" y="560"/>
      <point x="-249" y="538"/>
      <point x="-285" y="538" type="curve" smooth="yes"/>
      <point x="-334" y="538"/>
      <point x="-365" y="576"/>
      <point x="-365" y="631" type="curve" smooth="yes"/>
      <point x="-365" y="699"/>
      <point x="-317" y="744"/>
      <point x="-236" y="761" type="curve"/>
      <point x="-232" y="751"/>
      <point x="-229" y="741"/>
    </contour>
  </outline>
</glyph>
<glyph name="Ldot.sc" format="2">
  <advance width="637"/>
  <outline>
    <contour>
      <point x="30" y="30" type="curve"/>
      <point x="28" y="19"/>
      <point x="28" y="9"/>
      <point x="30" y="-1" type="curve"/>
      <point x="72" y="-1"/>
      <point x="126" y="1"/>
      <point x="183" y="1" type="curve" smooth="yes"/>
      <point x="264" y="1"/>
      <point x="382" y="-3"/>
      <point x="481" y="-3" type="curve"/>
      <point x="486" y="36"/>
      <point x="496" y="96"/>
      <point x="510" y="168" type="curve"/>
      <point x="501" y="170"/>
      <point x="489" y="170"/>
      <point x="480" y="168" type="curve"/>
      <point x="458" y="123"/>
      <point x="438" y="88"/>
      <point x="418" y="69" type="curve" smooth="yes"/>
      <point x="396" y="49"/>
      <point x="366" y="41"/>
      <point x="325" y="41" type="curve" smooth="yes"/>
      <point x="222" y="41" type="line"/>
      <point x="220" y="49"/>
      <point x="220" y="77"/>
      <point x="220" y="120" type="curve" smooth="yes"/>
      <point x="220" y="442" type="line" smooth="yes"/>
      <point x="220" y="510"/>
      <point x="224" y="510"/>
      <point x="311" y="519" type="curve"/>
      <point x="313" y="529"/>
      <point x="313" y="539"/>
      <point x="311" y="550" type="curve"/>
      <point x="275" y="550"/>
      <point x="204" y="548"/>
      <point x="170" y="548" type="curve" smooth="yes"/>
      <point x="136" y="548"/>
      <point x="68" y="550"/>
      <point x="30" y="550" type="curve"/>
      <point x="28" y="539"/>
      <point x="28" y="529"/>
      <point x="30" y="519" type="curve"/>
      <point x="115" y="511"/>
      <point x="119" y="509"/>
      <point x="119" y="429" type="curve" smooth="yes"/>
      <point x="119" y="108" type="line" smooth="yes"/>
      <point x="119" y="39"/>
      <point x="116" y="39"/>
    </contour>
    <contour>
      <point x="502" y="291" type="curve" smooth="yes"/>
      <point x="502" y="255"/>
      <point x="531" y="225"/>
      <point x="568" y="225" type="curve" smooth="yes"/>
      <point x="608" y="225"/>
      <point x="637" y="258"/>
      <point x="637" y="291" type="curve" smooth="yes"/>
      <point x="637" y="327"/>
      <point x="606" y="358"/>
      <point x="570" y="358" type="curve" smooth="yes"/>
      <point x="532" y="358"/>
      <point x="502" y="327"/>
    </contour>
  </outline>
</glyph>
<glyph name="commaaccentturnedabovecomb.cap" format="2">
  <outline>
    <contour>
      <point x="-231" y="916" type="curve"/>
      <point x="-292" y="905"/>
      <point x="-317" y="879"/>
      <point x="-317" y="848" type="curve" smooth="yes"/>
      <point x="-317" y="837"/>
      <point x="-315" y="832"/>
      <point x="-308" y="816" type="curve"/>
      <point x="-323" y="820" type="line"/>
      <point x="-309" y="838"/>
      <point x="-289" y="844"/>
      <point x="-272" y="844" type="curve" smooth="yes"/>
      <point x="-245" y="844"/>
      <point x="-223" y="825"/>
      <point x="-223" y="793" type="curve" smooth="yes"/>
      <point x="-223" y="758"/>
      <point x="-250" y="736"/>
      <point x="-286" y="736" type="curve" smooth="yes"/>
      <point x="-335" y="736"/>
      <point x="-366" y="772"/>
      <point x="-366" y="823" type="curve" smooth="yes"/>
      <point x="-366" y="887"/>
      <point x="-321" y="934"/>
      <point x="-239" y="947" type="curve"/>
      <point x="-235" y="937"/>
      <point x="-232" y="927"/>
    </contour>
  </outline>
</glyph>
<glyph name="five.numr" format="2">
  <advance width="333"/>
  <outline>
    <contour>
      <point x="80" y="696" type="line"/>
      <point x="52" y="498" type="line"/>
      <point x="57" y="495" type="line"/>
      <point x="79" y="504"/>
      <point x="103" y="507"/>
      <point x="125" y="507" type="curve" smooth="yes"/>
      <point x="202" y="507"/>
      <point x="230" y="473"/>
      <point x="230" y="437" type="curve" smooth="yes"/>
      <point x="230" y="394"/>
      <point x="195" y="357"/>
      <point x="141" y="357" type="curve" smooth="yes"/>
      <point x="128" y="357"/>
      <point x="117" y="360"/>
      <point x="105" y="365" type="curve"/>
      <point x="124" y="351" type="line"/>
      <point x="111" y="414"/>
      <point x="80" y="439"/>
      <point x="52" y="439" type="curve" smooth="yes"/>
      <point x="33" y="439"/>
      <point x="17" y="427"/>
      <point x="17" y="401" type="curve" smooth="yes"/>
      <point x="17" y="356"/>
      <point x="70" y="329"/>
      <point x="136" y="329" type="curve" smooth="yes"/>
      <point x="217" y="329"/>
      <point x="304" y="371"/>
      <point x="304" y="459" type="curve" smooth="yes"/>
      <point x="304" y="524"/>
      <point x="256" y="573"/>
      <point x="152" y="573" type="curve" smooth="yes"/>
      <point x="131" y="573"/>
      <point x="110" y="571"/>
      <point x="87" y="566" type="curve"/>
      <point x="94" y="560" type="line"/>
      <point x="106" y="634" type="line"/>
      <point x="97" y="628" type="line"/>
      <point x="271" y="626" type="line"/>
      <point x="279" y="649"/>
      <point x="282" y="675"/>
      <point x="286" y="698" type="curve"/>
    </contour>
  </outline>
</glyph>
<glyph name="four.LP" format="2">
  <advance width="601"/>
  <outline>
    <contour>
      <point x="410" y="-3" type="curve" smooth="yes"/>
      <point x="427" y="-3"/>
      <point x="444" y="-3"/>
      <point x="460" y="-2" type="curve"/>
      <point x="460" y="612" type="line" smooth="yes"/>
      <point x="460" y="631"/>
      <point x="460" y="652"/>
      <point x="462" y="703" type="curve"/>
      <point x="439" y="707"/>
      <point x="412" y="709"/>
      <point x="385" y="709" type="curve"/>
      <point x="262" y="554"/>
      <point x="143" y="402"/>
      <point x="25" y="241" type="curve"/>
      <point x="25" y="223"/>
      <point x="26" y="202"/>
      <point x="28" y="184" type="curve"/>
      <point x="568" y="184" type="line"/>
      <point x="570" y="208"/>
      <point x="572" y="235"/>
      <point x="573" y="262" type="curve"/>
      <point x="94" y="262" type="line"/>
      <point x="180" y="382"/>
      <point x="267" y="494"/>
      <point x="360" y="612" type="curve"/>
      <point x="360" y="-2" type="line"/>
      <point x="375" y="-3"/>
      <point x="394" y="-3"/>
    </contour>
  </outline>
</glyph>
<glyph name="j.f_" format="2">
  <advance width="286"/>
  <outline>
    <contour>
      <point x="200" y="381" type="curve" smooth="yes"/>
      <point x="200" y="413"/>
      <point x="201" y="449"/>
      <point x="202" y="491" type="curve"/>
      <point x="185" y="497" type="line"/>
      <point x="140" y="478"/>
      <point x="109" y="473"/>
      <point x="72" y="473" type="curve" smooth="yes"/>
      <point x="-37" y="473" type="line"/>
      <point x="-37" y="427" type="line"/>
      <point x="53" y="427" type="line" smooth="yes"/>
      <point x="88" y="427"/>
      <point x="99" y="420"/>
      <point x="99" y="381" type="curve" smooth="yes"/>
      <point x="99" y="326"/>
      <point x="100" y="41"/>
      <point x="100" y="-29" type="curve" smooth="yes"/>
      <point x="100" y="-77"/>
      <point x="100" y="-199"/>
      <point x="47" y="-208" type="curve"/>
      <point x="62" y="-218" type="line"/>
      <point x="47" y="-177"/>
      <point x="16" y="-158"/>
      <point x="-17" y="-158" type="curve" smooth="yes"/>
      <point x="-53" y="-158"/>
      <point x="-72" y="-180"/>
      <point x="-72" y="-204" type="curve" smooth="yes"/>
      <point x="-72" y="-228"/>
      <point x="-52" y="-255"/>
      <point x="1" y="-255" type="curve" smooth="yes"/>
      <point x="50" y="-255"/>
      <point x="99" y="-231"/>
      <point x="141" y="-186" type="curve" smooth="yes"/>
      <point x="186" y="-138"/>
      <point x="202" y="-86"/>
      <point x="202" y="51" type="curve" smooth="yes"/>
      <point x="202" y="97"/>
      <point x="200" y="353"/>
    </contour>
  </outline>
</glyph>
<glyph name="six.LP" format="2">
  <advance width="591"/>
  <outline>
    <contour>
      <point x="301" y="-12" type="curve" smooth="yes"/>
      <point x="424" y="-12"/>
      <point x="549" y="66"/>
      <point x="549" y="227" type="curve" smooth="yes"/>
      <point x="549" y="378"/>
      <point x="441" y="443"/>
      <point x="329" y="443" type="curve" smooth="yes"/>
      <point x="271" y="443"/>
      <point x="212" y="426"/>
      <point x="165" y="393" type="curve"/>
      <point x="156" y="345" type="line"/>
      <point x="196" y="375"/>
      <point x="241" y="390"/>
      <point x="282" y="390" type="curve" smooth="yes"/>
      <point x="361" y="390"/>
      <point x="435" y="333"/>
      <point x="435" y="200" type="curve" smooth="yes"/>
      <point x="435" y="72"/>
      <point x="367" y="26"/>
      <point x="307" y="26" type="curve" smooth="yes"/>
      <point x="233" y="26"/>
      <point x="159" y="98"/>
      <point x="159" y="278" type="curve" smooth="yes"/>
      <point x="159" y="497"/>
      <point x="269" y="674"/>
      <point x="474" y="674" type="curve" smooth="yes"/>
      <point x="489" y="674"/>
      <point x="500" y="673"/>
      <point x="507" y="672" type="curve"/>
      <point x="510" y="685"/>
      <point x="511" y="696"/>
      <point x="511" y="709" type="curve"/>
      <point x="498" y="711"/>
      <point x="482" y="711"/>
      <point x="477" y="711" type="curve" smooth="yes"/>
      <point x="189" y="711"/>
      <point x="48" y="477"/>
      <point x="48" y="268" type="curve" smooth="yes"/>
      <point x="48" y="67"/>
      <point x="178" y="-12"/>
    </contour>
  </outline>
</glyph>
<glyph name="three.numr" format="2">
  <advance width="318"/>
  <outline>
    <contour>
      <point x="85" y="522" type="line"/>
      <point x="85" y="513"/>
      <point x="87" y="506"/>
      <point x="92" y="499" type="curve"/>
      <point x="103" y="502"/>
      <point x="112" y="505"/>
      <point x="128" y="505" type="curve" smooth="yes"/>
      <point x="185" y="505"/>
      <point x="215" y="468"/>
      <point x="215" y="428" type="curve" smooth="yes"/>
      <point x="215" y="385"/>
      <point x="180" y="357"/>
      <point x="137" y="357" type="curve" smooth="yes"/>
      <point x="129" y="357"/>
      <point x="115" y="358"/>
      <point x="105" y="363" type="curve"/>
      <point x="116" y="351" type="line"/>
      <point x="105" y="408"/>
      <point x="75" y="439"/>
      <point x="45" y="439" type="curve" smooth="yes"/>
      <point x="24" y="439"/>
      <point x="9" y="424"/>
      <point x="9" y="401" type="curve" smooth="yes"/>
      <point x="9" y="358"/>
      <point x="62" y="329"/>
      <point x="130" y="329" type="curve" smooth="yes"/>
      <point x="205" y="329"/>
      <point x="292" y="364"/>
      <point x="292" y="447" type="curve" smooth="yes"/>
      <point x="292" y="504"/>
      <point x="253" y="537"/>
      <point x="175" y="546" type="curve"/>
    </contour>
    <contour>
      <point x="177" y="535" type="line"/>
      <point x="243" y="560"/>
      <point x="272" y="594"/>
      <point x="272" y="626" type="curve" smooth="yes"/>
      <point x="272" y="663"/>
      <point x="232" y="699"/>
      <point x="163" y="699" type="curve" smooth="yes"/>
      <point x="115" y="699"/>
      <point x="66" y="682"/>
      <point x="27" y="635" type="curve"/>
      <point x="30" y="628"/>
      <point x="33" y="622"/>
      <point x="41" y="616" type="curve"/>
      <point x="62" y="635"/>
      <point x="92" y="646"/>
      <point x="123" y="646" type="curve" smooth="yes"/>
      <point x="170" y="646"/>
      <point x="194" y="622"/>
      <point x="194" y="598" type="curve" smooth="yes"/>
      <point x="194" y="569"/>
      <point x="160" y="540"/>
      <point x="85" y="522" type="curve"/>
    </contour>
  </outline>
</glyph>
<glyph name="zero.numr" format="2">
  <advance width="377"/>
  <outline>
    <contour>
      <point x="187" y="668" type="curve" smooth="yes"/>
      <point x="249" y="668"/>
      <point x="269" y="587"/>
      <point x="269" y="509" type="curve" smooth="yes"/>
      <point x="269" y="429"/>
      <point x="249" y="359"/>
      <point x="191" y="359" type="curve" smooth="yes"/>
      <point x="129" y="359"/>
      <point x="109" y="444"/>
      <point x="109" y="520" type="curve" smooth="yes"/>
      <point x="109" y="598"/>
      <point x="129" y="668"/>
    </contour>
    <contour>
      <point x="346" y="516" type="curve" smooth="yes"/>
      <point x="346" y="613"/>
      <point x="303" y="699"/>
      <point x="192" y="699" type="curve" smooth="yes"/>
      <point x="80" y="699"/>
      <point x="31" y="609"/>
      <point x="31" y="511" type="curve" smooth="yes"/>
      <point x="31" y="407"/>
      <point x="85" y="329"/>
      <point x="188" y="329" type="curve" smooth="yes"/>
      <point x="291" y="329"/>
      <point x="346" y="408"/>
    </contour>
  </outline>
</glyph>
<glyph name="zero.sc" format="2">
  <advance width="512"/>
  <outline>
    <contour>
      <point x="253" y="522" type="curve" smooth="yes"/>
      <point x="344" y="522"/>
      <point x="372" y="391"/>
      <point x="372" y="265" type="curve" smooth="yes"/>
      <point x="372" y="137"/>
      <point x="344" y="25"/>
      <point x="260" y="25" type="curve" smooth="yes"/>
      <point x="169" y="25"/>
      <point x="141" y="160"/>
      <point x="141" y="285" type="curve" smooth="yes"/>
      <point x="141" y="409"/>
      <point x="169" y="522"/>
    </contour>
    <contour>
      <point x="468" y="278" type="curve" smooth="yes"/>
      <point x="468" y="427"/>
      <point x="409" y="560"/>
      <point x="261" y="560" type="curve" smooth="yes"/>
      <point x="110" y="560"/>
      <point x="44" y="422"/>
      <point x="44" y="269" type="curve" smooth="yes"/>
      <point x="44" y="109"/>
      <point x="117" y="-12"/>
      <point x="254" y="-12" type="curve" smooth="yes"/>
      <point x="394" y="-12"/>
      <point x="468" y="111"/>
    </contour>
  </outline>
</glyph>
